<svg width="24" height="24" viewBox="0 0 24 24" fill="none" xmlns="http://www.w3.org/2000/svg">
<path d="M10.7109 13.2697L10.7904 13.4662L13.1238 19.2304C13.1725 19.3458 13.2264 19.3991 13.2713 19.4273L10.7109 13.2697ZM10.7109 13.2697L10.5143 13.1903M10.7109 13.2697L10.5143 13.1903M10.5143 13.1903L4.75281 10.8615L4.74329 10.8576M10.5143 13.1903L4.74329 10.8576M4.74329 10.8576L4.73361 10.8541M4.74329 10.8576L4.73361 10.8541M4.73361 10.8541C4.62346 10.8148 4.57487 10.7666 4.54787 10.7239L4.54785 10.7238M4.73361 10.8541L4.54785 10.7238M4.54785 10.7238C4.50685 10.6589 4.48083 10.5785 4.48083 10.4667C4.48083 10.3621 4.50648 10.2919 4.54548 10.236C4.58446 10.1803 4.64547 10.127 4.75363 10.0844L18.573 4.9223L18.573 4.92237M4.54785 10.7238L18.573 4.92237M18.573 4.92237L18.5807 4.91936M18.573 4.92237L18.5807 4.91936M18.5807 4.91936C18.6715 4.88372 18.7268 4.88805 18.7667 4.90005C18.8537 4.92617 18.9186 4.96622 18.9714 5.01899C19.0242 5.07177 19.0642 5.13672 19.0903 5.22363C19.1023 5.26357 19.1067 5.31891 19.071 5.40977L19.071 5.40975M18.5807 4.91936L19.071 5.40975M19.071 5.40975L19.0685 5.41632M19.071 5.40975L19.0685 5.41632M19.0685 5.41632L13.8714 19.2323M19.0685 5.41632L13.8714 19.2323M13.8714 19.2323C13.8185 19.3503 13.7632 19.3994 13.7221 19.4231C13.6388 19.4709 13.5614 19.4903 13.4826 19.4903C13.4091 19.4903 13.3418 19.4718 13.2713 19.4274L13.8714 19.2323ZM13.0034 17.35L13.4826 18.542L13.9352 17.3397L17.9506 6.67426L18.3384 5.64421L17.3075 6.02977L6.62291 10.0259L5.41572 10.4774L6.61156 10.9582L11.1706 12.7909L13.0034 17.35Z" fill="#5F6D6D" stroke="black"/>
</svg>
